<?xml version="1.0" encoding="utf-8"?>
<!-- Generator: Adobe Illustrator 17.0.0, SVG Export Plug-In . SVG Version: 6.00 Build 0)  -->
<!DOCTYPE svg PUBLIC "-//W3C//DTD SVG 1.1//EN" "http://www.w3.org/Graphics/SVG/1.1/DTD/svg11.dtd">
<svg version="1.1" id="Layer_1" xmlns="http://www.w3.org/2000/svg" xmlns:xlink="http://www.w3.org/1999/xlink" x="0px" y="0px"
	 width="183.14px" height="49.419px" viewBox="0 0 183.14 49.419" enable-background="new 0 0 183.14 49.419" xml:space="preserve">
<g>
	<g>
		<path fill="#2D2E2D" d="M146.885,19.415c-3.006,0-5.42,2.352-5.42,5.399c0,3.048,2.413,5.4,5.42,5.4c3.007,0,5.42-2.352,5.42-5.4
			C152.305,21.766,149.891,19.415,146.885,19.415z"/>
		<path fill="#2D2E2D" d="M137.333,16.06c0-3.045-1.277-5.737-3.596-7.58c-2.03-1.613-4.71-2.501-7.548-2.501
			c-5.074,0-10.361,2.85-15.713,8.47c-3.931,4.128-6.476,8.299-6.756,8.766c-0.244,0.41-0.373,0.877-0.373,1.352
			c0,0.477,0.13,0.946,0.375,1.356c0.422,0.704,10.464,17.233,22.467,17.233c2.838,0,5.518-0.888,7.548-2.501
			c2.319-1.842,3.596-4.534,3.596-7.58c0-3.326-1.328-6.415-3.569-8.508C136.005,22.477,137.333,19.387,137.333,16.06z
			 M130.357,25.927c2.363,1.376,3.831,4.115,3.831,7.149c0,4.553-4.024,6.936-7.999,6.936c-9.503,0-18.313-13.39-19.607-15.443
			c1.296-2.053,10.118-15.444,19.607-15.444c3.975,0,7.999,2.382,7.999,6.936c0,3.035-1.468,5.774-3.831,7.149l-2.335,1.359
			L130.357,25.927z"/>
		<polygon fill="#2D2E2D" points="174.526,18.486 171.89,15.849 165.192,22.547 158.249,15.604 155.613,18.24 162.556,25.183 
			155.613,32.127 158.249,34.763 165.192,27.819 171.89,34.517 174.526,31.881 167.828,25.183 		"/>
		<path fill="#2D2E2D" d="M17.482,16.906h-5.993v14.618h3.278v-5.471h2.715c3.111,0,5.367-1.796,5.367-4.636
			C22.848,18.702,20.593,16.906,17.482,16.906z M17.398,23.338h-2.631v-3.696h2.631c1.399,0,2.234,0.752,2.234,1.775
			C19.632,22.523,18.797,23.338,17.398,23.338z"/>
		<path fill="#2D2E2D" d="M34.061,26.178c0,1.775-0.982,2.756-2.401,2.756c-1.42,0-2.401-0.981-2.401-2.756v-9.272h-3.278v9.355
			c0,3.404,2.339,5.534,5.68,5.534s5.68-2.13,5.68-5.534v-9.355h-3.278V26.178z"/>
		<path fill="#2D2E2D" d="M52.331,21.187c0-2.694-2.255-4.281-5.283-4.281h-5.952v14.618h3.279v-5.868h1.984l2.485,5.868h3.613
			l-3.069-6.244C51.161,24.632,52.331,23.191,52.331,21.187z M46.985,23.003h-2.61v-3.445h2.61c1.274,0,2.13,0.647,2.13,1.629
			C49.115,22.252,48.259,23.003,46.985,23.003z"/>
		<polygon fill="#2D2E2D" points="55.879,19.453 59.68,19.453 59.68,28.976 55.879,28.976 55.879,31.523 66.738,31.523 
			66.738,28.976 62.959,28.976 62.959,19.453 66.738,19.453 66.738,16.906 55.879,16.906 		"/>
		<polygon fill="#2D2E2D" points="69.911,19.704 74.484,19.704 74.484,31.523 77.763,31.523 77.763,19.704 82.336,19.704 
			82.336,16.906 69.911,16.906 		"/>
		<polygon fill="#2D2E2D" points="90.958,23.484 88.306,16.906 84.548,16.906 89.33,26.637 89.33,31.523 92.608,31.523 
			92.608,26.595 97.369,16.906 93.611,16.906 		"/>
	</g>
</g>
</svg>
